<svg width="30" height="30" viewBox="0 0 30 30" fill="none" xmlns="http://www.w3.org/2000/svg">
<path d="M24.4375 10.6666C27.2521 10.6666 29.5417 8.37706 29.5417 5.56248C29.5417 2.7479 27.2521 0.458313 24.4375 0.458313C21.6229 0.458313 19.3333 2.7479 19.3333 5.56248C19.3333 8.37706 21.6229 10.6666 24.4375 10.6666ZM24.4375 13.5833C25.1667 13.5833 25.8958 13.4812 26.625 13.2771V22.3333C26.625 26.3583 23.3583 29.625 19.3333 29.625H7.66667C3.64167 29.625 0.375 26.3583 0.375 22.3333V10.6666C0.375 6.64165 3.64167 3.37498 7.66667 3.37498H16.7229C16.5187 4.10415 16.4167 4.83331 16.4167 5.56248C16.4167 9.99581 20.0042 13.5833 24.4375 13.5833Z" fill="#0077FF"/>
</svg>
