<svg width="30" height="30" viewBox="0 0 30 30" fill="none" xmlns="http://www.w3.org/2000/svg">
<g clip-path="url(#clip0_1760_616)">
<path d="M20.3512 13.3985C20.4385 13.4856 20.5078 13.589 20.555 13.7029C20.6023 13.8168 20.6266 13.9389 20.6266 14.0622C20.6266 14.1855 20.6023 14.3076 20.555 14.4215C20.5078 14.5354 20.4385 14.6389 20.3512 14.726L14.7262 20.351C14.6391 20.4383 14.5357 20.5075 14.4218 20.5548C14.3079 20.6021 14.1858 20.6264 14.0625 20.6264C13.9392 20.6264 13.817 20.6021 13.7032 20.5548C13.5893 20.5075 13.4858 20.4383 13.3987 20.351L10.5862 17.5385C10.499 17.4513 10.4299 17.3478 10.3827 17.2339C10.3356 17.1201 10.3113 16.998 10.3113 16.8747C10.3113 16.7515 10.3356 16.6294 10.3827 16.5155C10.4299 16.4016 10.499 16.2981 10.5862 16.211C10.7623 16.0349 11.001 15.936 11.25 15.936C11.3732 15.936 11.4953 15.9603 11.6092 16.0075C11.7231 16.0547 11.8265 16.1238 11.9137 16.211L14.0625 18.3616L19.0237 13.3985C19.1108 13.3112 19.2143 13.2419 19.3282 13.1946C19.442 13.1474 19.5641 13.123 19.6875 13.123C19.8108 13.123 19.9329 13.1474 20.0468 13.1946C20.1607 13.2419 20.2641 13.3112 20.3512 13.3985Z" fill="#B6B6B6"/>
<path d="M6.5625 0C6.81114 0 7.0496 0.0987721 7.22541 0.274587C7.40123 0.450403 7.5 0.68886 7.5 0.9375V1.875H22.5V0.9375C22.5 0.68886 22.5988 0.450403 22.7746 0.274587C22.9504 0.0987721 23.1889 0 23.4375 0C23.6861 0 23.9246 0.0987721 24.1004 0.274587C24.2762 0.450403 24.375 0.68886 24.375 0.9375V1.875H26.25C27.2446 1.875 28.1984 2.27009 28.9016 2.97335C29.6049 3.67661 30 4.63044 30 5.625V26.25C30 27.2446 29.6049 28.1984 28.9016 28.9016C28.1984 29.6049 27.2446 30 26.25 30H3.75C2.75544 30 1.80161 29.6049 1.09835 28.9016C0.395088 28.1984 0 27.2446 0 26.25V5.625C0 4.63044 0.395088 3.67661 1.09835 2.97335C1.80161 2.27009 2.75544 1.875 3.75 1.875H5.625V0.9375C5.625 0.68886 5.72377 0.450403 5.89959 0.274587C6.0754 0.0987721 6.31386 0 6.5625 0ZM1.875 7.5V26.25C1.875 26.7473 2.07254 27.2242 2.42417 27.5758C2.77581 27.9275 3.25272 28.125 3.75 28.125H26.25C26.7473 28.125 27.2242 27.9275 27.5758 27.5758C27.9275 27.2242 28.125 26.7473 28.125 26.25V7.5H1.875Z" fill="#B6B6B6"/>
</g>
<defs>
<clipPath id="clip0_1760_616">
<rect width="30" height="30" fill="white"/>
</clipPath>
</defs>
</svg>
