<svg width="30" height="30" viewBox="0 0 30 30" fill="none" xmlns="http://www.w3.org/2000/svg">
<g clip-path="url(#clip0_1760_619)">
<path d="M7.5 0.9375C7.5 0.68886 7.40123 0.450403 7.22541 0.274587C7.0496 0.0987721 6.81114 0 6.5625 0C6.31386 0 6.0754 0.0987721 5.89959 0.274587C5.72377 0.450403 5.625 0.68886 5.625 0.9375V1.875H3.75C2.75544 1.875 1.80161 2.27009 1.09835 2.97335C0.395088 3.67661 0 4.63044 0 5.625L0 7.5H30V5.625C30 4.63044 29.6049 3.67661 28.9016 2.97335C28.1984 2.27009 27.2446 1.875 26.25 1.875H24.375V0.9375C24.375 0.68886 24.2762 0.450403 24.1004 0.274587C23.9246 0.0987721 23.6861 0 23.4375 0C23.1889 0 22.9504 0.0987721 22.7746 0.274587C22.5988 0.450403 22.5 0.68886 22.5 0.9375V1.875H7.5V0.9375ZM30 26.25V9.375H0V26.25C0 27.2446 0.395088 28.1984 1.09835 28.9016C1.80161 29.6049 2.75544 30 3.75 30H26.25C27.2446 30 28.1984 29.6049 28.9016 28.9016C29.6049 28.1984 30 27.2446 30 26.25ZM20.3512 16.6012L14.7262 22.2262C14.6392 22.3136 14.5357 22.3828 14.4218 22.4301C14.3079 22.4773 14.1858 22.5017 14.0625 22.5017C13.9392 22.5017 13.8171 22.4773 13.7032 22.4301C13.5893 22.3828 13.4858 22.3136 13.3988 22.2262L10.5863 19.4137C10.4102 19.2377 10.3113 18.999 10.3113 18.75C10.3113 18.501 10.4102 18.2623 10.5863 18.0863C10.7623 17.9102 11.001 17.8113 11.25 17.8113C11.499 17.8113 11.7377 17.9102 11.9137 18.0863L14.0625 20.2369L19.0238 15.2738C19.1998 15.0977 19.4385 14.9988 19.6875 14.9988C19.9365 14.9988 20.1752 15.0977 20.3512 15.2738C20.5273 15.4498 20.6262 15.6885 20.6262 15.9375C20.6262 16.1865 20.5273 16.4252 20.3512 16.6012Z" fill="#0077FF"/>
</g>
<defs>
<clipPath id="clip0_1760_619">
<rect width="30" height="30" fill="white"/>
</clipPath>
</defs>
</svg>
