<svg width="58" height="33" viewBox="0 0 58 33" fill="none" xmlns="http://www.w3.org/2000/svg">
<rect x="27.2203" y="0.5" width="4.2643" height="1.87144" rx="0.935718" transform="rotate(90 27.2203 0.5)" fill="#2A63FB" stroke="#2A63FB"/>
<rect x="32.4845" y="0.5" width="4.2643" height="1.87144" rx="0.935718" transform="rotate(90 32.4845 0.5)" fill="#2A63FB" stroke="#2A63FB"/>
<mask id="path-3-outside-1_1158_2048" maskUnits="userSpaceOnUse" x="19.7411" y="6.21851" width="19" height="26" fill="black">
<rect fill="white" x="19.7411" y="6.21851" width="19" height="26"/>
<path fill-rule="evenodd" clip-rule="evenodd" d="M24.8374 7.54147C24.448 7.33528 24.004 7.21851 23.5328 7.21851C21.991 7.21851 20.7411 8.46838 20.7411 10.0102L20.7411 28.3555C20.7411 29.8973 21.991 31.1471 23.5328 31.1471C25.0746 31.1471 26.3244 29.8973 26.3244 28.3555L26.3244 17.9244L32.1517 29.8971C32.4668 30.5445 33.0974 30.9355 33.7684 30.9749C34.0574 31.0862 34.3713 31.1471 34.6994 31.1471C36.1311 31.1471 37.2917 29.9865 37.2917 28.5549V9.81077C37.2917 8.3791 36.1311 7.21851 34.6994 7.21851C33.2677 7.21851 32.1071 8.3791 32.1071 9.81077V21.0234L26.035 8.54758C25.7868 8.03757 25.3427 7.68672 24.8374 7.54147Z"/>
</mask>
<path fill-rule="evenodd" clip-rule="evenodd" d="M24.8374 7.54147C24.448 7.33528 24.004 7.21851 23.5328 7.21851C21.991 7.21851 20.7411 8.46838 20.7411 10.0102L20.7411 28.3555C20.7411 29.8973 21.991 31.1471 23.5328 31.1471C25.0746 31.1471 26.3244 29.8973 26.3244 28.3555L26.3244 17.9244L32.1517 29.8971C32.4668 30.5445 33.0974 30.9355 33.7684 30.9749C34.0574 31.0862 34.3713 31.1471 34.6994 31.1471C36.1311 31.1471 37.2917 29.9865 37.2917 28.5549V9.81077C37.2917 8.3791 36.1311 7.21851 34.6994 7.21851C33.2677 7.21851 32.1071 8.3791 32.1071 9.81077V21.0234L26.035 8.54758C25.7868 8.03757 25.3427 7.68672 24.8374 7.54147Z" fill="white"/>
<path d="M24.8374 7.54147L24.3694 8.4252L24.4613 8.47385L24.5611 8.50256L24.8374 7.54147ZM23.5328 7.21851V6.21851V7.21851ZM20.7411 10.0102H19.7411H20.7411ZM20.7411 28.3555H21.7411H20.7411ZM26.3244 28.3555H25.3244H26.3244ZM26.3244 17.9244L27.2236 17.4868L25.3244 17.9244H26.3244ZM32.1517 29.8971L33.0508 29.4595L32.1517 29.8971ZM33.7684 30.9749L34.1277 30.0417L33.9825 29.9858L33.8272 29.9767L33.7684 30.9749ZM37.2917 28.5549L38.2917 28.5549V28.5549H37.2917ZM34.6994 7.21851V8.21851V7.21851ZM32.1071 21.0234L31.208 21.461L33.1071 21.0234H32.1071ZM26.035 8.54758L25.1359 8.98521L26.035 8.54758ZM25.3054 6.65773C24.7753 6.37705 24.1711 6.21851 23.5328 6.21851V8.21851C23.837 8.21851 24.1207 8.29351 24.3694 8.4252L25.3054 6.65773ZM23.5328 6.21851C21.4387 6.21851 19.7411 7.91609 19.7411 10.0102H21.7411C21.7411 9.02066 22.5432 8.21851 23.5328 8.21851V6.21851ZM19.7411 10.0102L19.7411 28.3555H21.7411L21.7411 10.0102H19.7411ZM19.7411 28.3555C19.7411 30.4495 21.4387 32.1471 23.5328 32.1471V30.1471C22.5432 30.1471 21.7411 29.345 21.7411 28.3555H19.7411ZM23.5328 32.1471C25.6268 32.1471 27.3244 30.4496 27.3244 28.3555H25.3244C25.3244 29.345 24.5223 30.1471 23.5328 30.1471V32.1471ZM27.3244 28.3555L27.3244 17.9244H25.3244L25.3244 28.3555H27.3244ZM33.0508 29.4595L27.2236 17.4868L25.4253 18.362L31.2525 30.3348L33.0508 29.4595ZM33.8272 29.9767C33.5024 29.9576 33.2014 29.7688 33.0508 29.4595L31.2525 30.3348C31.7322 31.3202 32.6925 31.9134 33.7097 31.9732L33.8272 29.9767ZM33.4092 31.9082C33.811 32.0628 34.2465 32.1471 34.6994 32.1471V30.1471C34.496 30.1471 34.3038 30.1095 34.1277 30.0417L33.4092 31.9082ZM34.6994 32.1471C36.6834 32.1471 38.2917 30.5388 38.2917 28.5549L36.2917 28.5549C36.2917 29.4343 35.5788 30.1471 34.6994 30.1471V32.1471ZM38.2917 28.5549V9.81077H36.2917V28.5549H38.2917ZM38.2917 9.81077C38.2917 7.82682 36.6834 6.21851 34.6994 6.21851V8.21851C35.5788 8.21851 36.2917 8.93139 36.2917 9.81077H38.2917ZM34.6994 6.21851C32.7155 6.21851 31.1071 7.82682 31.1071 9.81077H33.1071C33.1071 8.93139 33.82 8.21851 34.6994 8.21851V6.21851ZM31.1071 9.81077V21.0234H33.1071V9.81077H31.1071ZM25.1359 8.98521L31.208 21.461L33.0063 20.5857L26.9342 8.10995L25.1359 8.98521ZM24.5611 8.50256C24.8056 8.57281 25.0169 8.74067 25.1359 8.98521L26.9342 8.10995C26.5568 7.33448 25.8799 6.80062 25.1136 6.58038L24.5611 8.50256Z" fill="#2A63FB" mask="url(#path-3-outside-1_1158_2048)"/>
<path fill-rule="evenodd" clip-rule="evenodd" d="M1.69727 17.8559C1.54223 18.034 1.41659 18.2276 1.31995 18.4308C0.782388 19.3921 0.922213 20.6301 1.73942 21.4473L11.4353 31.1432C12.4212 32.1291 14.0196 32.1291 15.0055 31.1432C15.9914 30.1573 15.9914 28.5589 15.0055 27.573L8.18879 20.7562C7.86499 19.992 7.81562 19.0871 8.05374 18.2451L15.0562 10.2045C15.9719 9.15311 15.8618 7.55845 14.8104 6.64277C13.7589 5.72709 12.1643 5.83713 11.2486 6.88857L1.69727 17.8559Z" fill="#2A63FB"/>
<path d="M1.31995 18.4308L1.75634 18.6749L1.76441 18.6605L1.7715 18.6455L1.31995 18.4308ZM1.69727 17.8559L1.32022 17.5276H1.32022L1.69727 17.8559ZM1.73942 21.4473L2.09298 21.0938L1.73942 21.4473ZM11.4353 31.1432L11.0817 31.4968H11.0817L11.4353 31.1432ZM15.0055 31.1432L14.652 30.7897H14.652L15.0055 31.1432ZM15.0055 27.573L14.652 27.9265H14.652L15.0055 27.573ZM8.18879 20.7562L7.72842 20.9513L7.7664 21.0409L7.83524 21.1098L8.18879 20.7562ZM8.05374 18.2451L7.67668 17.9168L7.6031 18.0012L7.57261 18.1091L8.05374 18.2451ZM15.0562 10.2045L15.4332 10.5329L15.0562 10.2045ZM14.8104 6.64277L14.482 7.01982V7.01982L14.8104 6.64277ZM11.2486 6.88857L11.6257 7.21694L11.2486 6.88857ZM1.7715 18.6455C1.84879 18.483 1.94946 18.3277 2.07433 18.1843L1.32022 17.5276C1.13499 17.7402 0.984387 17.9722 0.868392 18.2161L1.7715 18.6455ZM2.09298 21.0938C1.43813 20.4389 1.32512 19.446 1.75634 18.6749L0.883554 18.1868C0.23966 19.3381 0.406297 20.8213 1.38587 21.8009L2.09298 21.0938ZM11.7889 30.7897L2.09298 21.0938L1.38587 21.8009L11.0817 31.4968L11.7889 30.7897ZM14.652 30.7897C13.8614 31.5803 12.5795 31.5803 11.7889 30.7897L11.0817 31.4968C12.2629 32.6779 14.1779 32.6779 15.3591 31.4968L14.652 30.7897ZM14.652 27.9265C15.4426 28.7172 15.4426 29.999 14.652 30.7897L15.3591 31.4968C16.5403 30.3156 16.5403 28.4006 15.3591 27.2194L14.652 27.9265ZM7.83524 21.1098L14.652 27.9265L15.3591 27.2194L8.54235 20.4027L7.83524 21.1098ZM7.57261 18.1091C7.30521 19.0546 7.35785 20.0768 7.72842 20.9513L8.64917 20.5612C8.37213 19.9073 8.32604 19.1196 8.53487 18.3812L7.57261 18.1091ZM14.6791 9.87617L7.67668 17.9168L8.4308 18.5735L15.4332 10.5329L14.6791 9.87617ZM14.482 7.01982C15.3252 7.75415 15.4134 9.03298 14.6791 9.87617L15.4332 10.5329C16.5303 9.27324 16.3984 7.36274 15.1387 6.26571L14.482 7.01982ZM11.6257 7.21694C12.36 6.37375 13.6388 6.2855 14.482 7.01982L15.1387 6.26571C13.8791 5.16868 11.9686 5.30052 10.8715 6.5602L11.6257 7.21694ZM2.07433 18.1843L11.6257 7.21694L10.8715 6.5602L1.32022 17.5276L2.07433 18.1843Z" fill="#2A63FB"/>
<path fill-rule="evenodd" clip-rule="evenodd" d="M56.3247 19.4506C56.4797 19.2726 56.6054 19.0789 56.702 18.8757C57.2396 17.9145 57.0998 16.6764 56.2826 15.8592L46.5867 6.16329C45.6008 5.1774 44.0023 5.1774 43.0164 6.16329C42.0305 7.14919 42.0305 8.74764 43.0164 9.73354L49.8792 16.5963C50.0202 17.0667 50.0991 17.6075 50.0951 18.1944C50.0934 18.4634 50.0742 18.7262 50.0394 18.9796L42.9658 27.102C42.0501 28.1534 42.1602 29.7481 43.2116 30.6638C44.263 31.5794 45.8577 31.4694 46.7734 30.418L56.3247 19.4506Z" fill="#2A63FB"/>
<path d="M56.702 18.8757L56.2656 18.6316L56.2576 18.6461L56.2505 18.661L56.702 18.8757ZM56.3247 19.4506L56.7018 19.779H56.7018L56.3247 19.4506ZM56.2826 15.8592L55.929 16.2127L56.2826 15.8592ZM46.5867 6.16329L46.9402 5.80974L46.5867 6.16329ZM43.0164 6.16329L43.37 6.51685H43.37L43.0164 6.16329ZM43.0164 9.73354L43.37 9.37999L43.0164 9.73354ZM49.8792 16.5963L50.3581 16.4527L50.3219 16.3319L50.2327 16.2427L49.8792 16.5963ZM50.0951 18.1944L50.5951 18.1978L50.0951 18.1944ZM50.0394 18.9796L50.4165 19.308L50.5146 19.1954L50.5348 19.0474L50.0394 18.9796ZM42.9658 27.102L43.3429 27.4304V27.4304L42.9658 27.102ZM43.2116 30.6638L42.8832 31.0408L43.2116 30.6638ZM46.7734 30.418L46.3963 30.0896L46.7734 30.418ZM56.2505 18.661C56.1732 18.8235 56.0725 18.9788 55.9476 19.1222L56.7018 19.779C56.887 19.5663 57.0376 19.3344 57.1536 19.0904L56.2505 18.661ZM55.929 16.2127C56.5838 16.8676 56.6969 17.8606 56.2656 18.6316L57.1384 19.1197C57.7823 17.9684 57.6157 16.4852 56.6361 15.5056L55.929 16.2127ZM46.2331 6.51685L55.929 16.2127L56.6361 15.5056L46.9402 5.80974L46.2331 6.51685ZM43.37 6.51685C44.1606 5.72621 45.4425 5.72621 46.2331 6.51685L46.9402 5.80974C45.7591 4.62858 43.844 4.62858 42.6629 5.80974L43.37 6.51685ZM43.37 9.37999C42.5793 8.58935 42.5793 7.30748 43.37 6.51685L42.6629 5.80974C41.4817 6.9909 41.4817 8.90594 42.6629 10.0871L43.37 9.37999ZM50.2327 16.2427L43.37 9.37999L42.6629 10.0871L49.5256 16.9498L50.2327 16.2427ZM50.5951 18.1978C50.5994 17.5647 50.5145 16.9742 50.3581 16.4527L49.4002 16.7399C49.526 17.1593 49.5988 17.6502 49.5952 18.1911L50.5951 18.1978ZM50.5348 19.0474C50.5725 18.7726 50.5932 18.4883 50.5951 18.1978L49.5952 18.1911C49.5935 18.4385 49.5758 18.6797 49.5441 18.9118L50.5348 19.0474ZM43.3429 27.4304L50.4165 19.308L49.6624 18.6512L42.5887 26.7736L43.3429 27.4304ZM43.54 30.2867C42.6968 29.5524 42.6085 28.2735 43.3429 27.4304L42.5887 26.7736C41.4917 28.0333 41.6236 29.9438 42.8832 31.0408L43.54 30.2867ZM46.3963 30.0896C45.662 30.9328 44.3832 31.021 43.54 30.2867L42.8832 31.0408C44.1429 32.1378 46.0534 32.006 47.1504 30.7463L46.3963 30.0896ZM55.9476 19.1222L46.3963 30.0896L47.1504 30.7463L56.7018 19.779L55.9476 19.1222Z" fill="#2A63FB"/>
</svg>
